<svg aria-hidden="true" style="width:0;height:0;position:absolute;overflow:hidden" xmlns="http://www.w3.org/2000/svg"><defs><symbol id="icon-Vector-1" viewBox="0 0 22 32"><path fill="none" stroke="$iconColor" stroke-linejoin="round" stroke-linecap="round" stroke-width="6.4" d="m4.545 3.2 13.7 12.8-13.7 12.8"/></symbol><symbol id="icon-arrow-right" viewBox="0 0 32 32"><path d="m29.177 16-10.036 8.313.859 1.02 12-10.028-12-9.972-.86 1.019 10.039 8.315H0V16h29.177z"/></symbol><symbol id="icon-close-btn" viewBox="0 0 32 32"><path stroke-width="2" d="m2.519 2 26.963 28M2 29.481 30 2.518"/></symbol><symbol id="icon-Burger" viewBox="0 0 46 32"><path stroke-width="2.286" d="M0 2.286h45.714M0 16h45.714M0 29.714h45.714"/></symbol><symbol id="icon-facebook" viewBox="0 0 16 32"><path d="M14.266 15.97H10.09v15.39H3.763V15.97H.754v-5.409h3.009v-3.5c0-2.503 1.182-6.422 6.384-6.422l4.687.02v5.25h-3.401c-.558 0-1.342.28-1.342 1.474v3.183h4.729l-.553 5.403z"/></symbol><symbol id="icon-github" viewBox="0 0 32 32"><path d="M16 .941C7.729.941.941 7.729.941 16c0 7.058 4.953 13.47 11.529 15.059v-4.982c-.652.143-1.251.147-1.915-.049-.89-.263-1.613-.856-2.15-1.76-.342-.577-.949-1.203-1.581-1.157l-.155-1.758c1.368-.117 2.551.833 3.254 2.013.312.525.671.832 1.132.969.446.131.924.068 1.481-.129.14-1.116.651-1.534 1.037-2.122v-.001c-3.922-.585-5.486-2.666-6.106-4.308-.822-2.181-.381-4.905 1.073-6.627.028-.034.079-.121.06-.183-.667-2.014.146-3.679.176-3.856.769.228.894-.229 3.342 1.258l.423.254c.177.105.121.045.298.032a12.77 12.77 0 0 1 3.16-.445 12.84 12.84 0 0 1 3.204.456l.137.014c-.012-.002.037-.009.12-.058 3.057-1.852 2.947-1.247 3.767-1.513.03.177.831 1.87.172 3.858-.089.274 2.65 2.782 1.132 6.809-.62 1.643-2.184 3.724-6.106 4.309v.001c.503.766 1.107 1.174 1.104 2.755v6.219c6.577-1.589 11.529-8.001 11.529-15.059C31.058 7.728 24.271.94 15.999.94z"/></symbol><symbol id="icon-telegram" viewBox="0 0 40 32"><path d="m16.205 20.751-.635 8.339c.909 0 1.302-.364 1.774-.802l4.261-3.801 8.829 6.035c1.619.842 2.76.399 3.197-1.39l5.797-25.346c.514-2.234-.866-3.108-2.443-2.56L2.92 13.398c-2.325.842-2.29 2.052-.395 2.6l8.709 2.528L31.463 6.712c.952-.588 1.818-.263 1.106.326L16.205 20.751z"/></symbol><symbol id="icon-icecream" viewBox="0 0 32 32"><path d="M28.525 3.5A8.363 8.363 0 0 0 22.55 1h-.019c-2.34 0-4.457.956-5.98 2.499l-.001.001-.22.235a4.31 4.31 0 0 0-5.139 6.128l-.011-.023L1.11 29.545a1 1 0 0 0 1.351 1.342l-.006.003 18.76-9.59v5.305a2.895 2.895 0 1 0 5.784-.006v.006-1.31c.237.076.51.12.793.12h.013-.001a2.81 2.81 0 0 0 2.805-2.805v-10.5l.002-.05-.002-.052v.002a8.264 8.264 0 0 0 .389-2.534A8.428 8.428 0 0 0 28.524 3.5zm-15.18 2.665a2.292 2.292 0 0 1 1.631-.678c.423 0 .82.114 1.16.314l-.011-.006a.998.998 0 0 0 .143.068l.007.002h.03a.997.997 0 0 0 .16.035h.005a1.217 1.217 0 0 0 .184 0h-.004a.732.732 0 0 0 .185-.037l-.005.002a.746.746 0 0 0 .179-.067l-.004.002.155-.095a.86.86 0 0 0 .119-.114l.001-.001v-.03l.045-.045c.208-.221.428-.424.662-.61l.013-.01A6.403 6.403 0 0 1 22.544 3h.024c1.774 0 3.379.723 4.536 1.89 1.166 1.169 1.887 2.783 1.887 4.565s-.721 3.396-1.887 4.565c-.193.198-.4.38-.621.545l-.014.01-.04.035-.045.045a1.082 1.082 0 0 0-.094.098l-.001.002-.03.04c-.027.037-.053.08-.077.124l-.003.006v.03c0 .05-.04.1-.055.15s0 0 0 .03a.824.824 0 0 0-.03.151v.229c.008.06.02.114.037.166l-.002-.006.002.018-.002.018v-.001c0 .05.04.095.065.145a2.31 2.31 0 0 1-3.352 2.995l.008.005-9.165-9.165-.585-.555a2.289 2.289 0 0 1-.428-1.34c0-.636.257-1.212.673-1.63zM4.3 27.7l8.3-16.235 7.935 7.935zM25 26.605a.895.895 0 1 1-1.784-.003v.003-5.4a4.128 4.128 0 0 0 1.811.046l-.026.004v5.35zm3.61-4a.804.804 0 1 1-1.61 0v-2.31a3.5 3.5 0 0 0 .25-.225 4.323 4.323 0 0 0 1.026-4.445l.009.03.235-.22.09-.1z"/><path d="M23.725 13.64a.997.997 0 0 0 1.414 0c1.039-1.043 1.682-2.481 1.682-4.07s-.643-3.027-1.682-4.07a1 1 0 0 0-1.415 1.416c.678.68 1.098 1.619 1.098 2.655s-.419 1.975-1.098 2.655a.997.997 0 0 0 0 1.414z"/></symbol><symbol id="icon-icecream2" viewBox="0 0 32 32"><path d="m27.5 24.315-5.285-5.27 2.405-2.405c.271-.271.439-.646.439-1.06s-.168-.789-.439-1.06l-8.775-8.775a7.142 7.142 0 1 0-10.1 10.1L14.5 24.62c.271.271.646.439 1.06.439s.789-.168 1.06-.439l2.405-2.405 5.29 5.285a.5.5 0 0 0 .71 0l2.475-2.475a.5.5 0 0 0 0-.71zm-11.55-.4a.5.5 0 0 1-.71 0L6.455 15.14C2.6 11.325 5.37 4.64 10.795 4.64h.018c1.691 0 3.222.688 4.326 1.8l8.775 8.785a.5.5 0 0 1 0 .71zm8.735 2.5-4.93-4.915 1.745-1.745 4.915 4.915z"/><path d="M9.42 13.39a.5.5 0 1 0-.71.705l5.5 5.5a.5.5 0 0 0 .704-.71zM14.095 8.71a.5.5 0 0 0-.704.71l5.5 5.5a.5.5 0 1 0 .71-.705zM11.755 11.05a.5.5 0 0 0-.704.706l-.001-.001 5.5 5.5a.5.5 0 0 0 .704-.706l.001.001z"/></symbol><symbol id="icon-email-black-18dp-1" viewBox="0 0 32 32"><path d="M26.667 5.333H5.334A2.663 2.663 0 0 0 2.681 8l-.013 16c0 1.467 1.2 2.667 2.667 2.667h21.333c1.467 0 2.667-1.2 2.667-2.667V8c0-1.467-1.2-2.667-2.667-2.667zM26.133 11l-9.427 5.893a1.346 1.346 0 0 1-1.413 0L5.866 11a1.132 1.132 0 1 1 1.2-1.92l8.933 5.587 8.933-5.587a1.132 1.132 0 1 1 1.2 1.92z"/></symbol><symbol id="icon-person-black-18dp-1" viewBox="0 0 32 32"><path d="M16 16c2.947 0 5.333-2.387 5.333-5.333S18.946 5.334 16 5.334c-2.947 0-5.333 2.387-5.333 5.333S13.054 16 16 16zm0 2.667c-3.56 0-10.667 1.787-10.667 5.333v1.333c0 .733.6 1.333 1.333 1.333h18.667c.733 0 1.333-.6 1.333-1.333V24c0-3.547-7.107-5.333-10.667-5.333z"/></symbol><symbol id="icon-phone-black-18dp-1" viewBox="0 0 32 32"><path d="m24.882 19.773-3.268-.373a2.561 2.561 0 0 0-2.11.733L17.137 22.5a19.357 19.357 0 0 1-8.478-8.478l2.38-2.38a2.561 2.561 0 0 0 .733-2.11l-.373-3.242a2.575 2.575 0 0 0-2.56-2.277H6.613c-1.454 0-2.663 1.209-2.573 2.663.682 10.987 9.469 19.761 20.443 20.443 1.454.09 2.663-1.119 2.663-2.573V22.32a2.549 2.549 0 0 0-2.264-2.547z"/></symbol></defs></svg>